<mxfile host="app.diagrams.net" agent="Mozilla/5.0 (Windows NT 10.0; Win64; x64) AppleWebKit/537.36 (KHTML, like Gecko) Chrome/136.0.0.0 Safari/537.36" version="27.0.1">
  <diagram name="Page-1" id="d5sviDtZb2pgu110_2li">
    <mxGraphModel dx="772" dy="483" grid="1" gridSize="10" guides="1" tooltips="1" connect="1" arrows="1" fold="1" page="1" pageScale="1" pageWidth="827" pageHeight="1169" math="0" shadow="0">
      <root>
        <mxCell id="0" />
        <mxCell id="1" parent="0" />
        <mxCell id="CoT1G1r6cHEaYP_C9Xn3-1" value="" style="rounded=0;whiteSpace=wrap;html=1;" vertex="1" parent="1">
          <mxGeometry x="160" y="40" width="450" height="380" as="geometry" />
        </mxCell>
        <mxCell id="CoT1G1r6cHEaYP_C9Xn3-2" value="&lt;b&gt;&lt;font style=&quot;font-size: 13px;&quot;&gt;Garda Station System&lt;/font&gt;&lt;/b&gt;" style="text;html=1;align=center;verticalAlign=middle;whiteSpace=wrap;rounded=0;" vertex="1" parent="1">
          <mxGeometry x="250" y="10" width="200" height="30" as="geometry" />
        </mxCell>
        <mxCell id="CoT1G1r6cHEaYP_C9Xn3-3" value="&lt;b&gt;&lt;font style=&quot;font-size: 13px;&quot;&gt;User&lt;/font&gt;&lt;/b&gt;" style="shape=umlActor;verticalLabelPosition=bottom;verticalAlign=top;html=1;" vertex="1" parent="1">
          <mxGeometry x="70" y="210" width="30" height="60" as="geometry" />
        </mxCell>
        <mxCell id="CoT1G1r6cHEaYP_C9Xn3-4" value="&lt;div&gt;Export Garda List&lt;/div&gt;" style="ellipse;whiteSpace=wrap;html=1;" vertex="1" parent="1">
          <mxGeometry x="180" y="215" width="130" height="50" as="geometry" />
        </mxCell>
        <mxCell id="CoT1G1r6cHEaYP_C9Xn3-6" value="" style="endArrow=open;endFill=1;endSize=12;html=1;rounded=0;exitX=1;exitY=0.3333333333333333;exitDx=0;exitDy=0;exitPerimeter=0;entryX=0.077;entryY=0.34;entryDx=0;entryDy=0;entryPerimeter=0;" edge="1" parent="1" source="CoT1G1r6cHEaYP_C9Xn3-3" target="CoT1G1r6cHEaYP_C9Xn3-4">
          <mxGeometry width="160" relative="1" as="geometry">
            <mxPoint x="320" y="250" as="sourcePoint" />
            <mxPoint x="480" y="250" as="targetPoint" />
          </mxGeometry>
        </mxCell>
        <mxCell id="CoT1G1r6cHEaYP_C9Xn3-7" value="Validate List Is Not Empty" style="ellipse;whiteSpace=wrap;html=1;" vertex="1" parent="1">
          <mxGeometry x="334" y="90" width="160" height="50" as="geometry" />
        </mxCell>
        <mxCell id="CoT1G1r6cHEaYP_C9Xn3-8" value="" style="endArrow=open;endFill=1;endSize=12;html=1;rounded=0;exitX=0.923;exitY=0.3;exitDx=0;exitDy=0;exitPerimeter=0;entryX=0.192;entryY=0.813;entryDx=0;entryDy=0;entryPerimeter=0;dashed=1;" edge="1" parent="1" source="CoT1G1r6cHEaYP_C9Xn3-4" target="CoT1G1r6cHEaYP_C9Xn3-7">
          <mxGeometry width="160" relative="1" as="geometry">
            <mxPoint x="320" y="250" as="sourcePoint" />
            <mxPoint x="480" y="250" as="targetPoint" />
          </mxGeometry>
        </mxCell>
        <mxCell id="CoT1G1r6cHEaYP_C9Xn3-9" value="&amp;lt;&amp;lt;include&amp;gt;&amp;gt;" style="edgeLabel;html=1;align=center;verticalAlign=middle;resizable=0;points=[];" vertex="1" connectable="0" parent="CoT1G1r6cHEaYP_C9Xn3-8">
          <mxGeometry x="0.2444" y="-1" relative="1" as="geometry">
            <mxPoint as="offset" />
          </mxGeometry>
        </mxCell>
        <mxCell id="CoT1G1r6cHEaYP_C9Xn3-10" value="Create Garda_Report.txt" style="rounded=1;whiteSpace=wrap;html=1;" vertex="1" parent="1">
          <mxGeometry x="400" y="225" width="166" height="30" as="geometry" />
        </mxCell>
        <mxCell id="CoT1G1r6cHEaYP_C9Xn3-11" value="Write all records" style="rounded=1;whiteSpace=wrap;html=1;" vertex="1" parent="1">
          <mxGeometry x="400" y="290" width="166" height="30" as="geometry" />
        </mxCell>
        <mxCell id="CoT1G1r6cHEaYP_C9Xn3-12" value="Display success message" style="rounded=1;whiteSpace=wrap;html=1;" vertex="1" parent="1">
          <mxGeometry x="400" y="360" width="166" height="30" as="geometry" />
        </mxCell>
        <mxCell id="CoT1G1r6cHEaYP_C9Xn3-15" value="" style="endArrow=classic;html=1;rounded=0;exitX=0.5;exitY=1;exitDx=0;exitDy=0;entryX=0.5;entryY=0;entryDx=0;entryDy=0;" edge="1" parent="1" source="CoT1G1r6cHEaYP_C9Xn3-11" target="CoT1G1r6cHEaYP_C9Xn3-12">
          <mxGeometry width="50" height="50" relative="1" as="geometry">
            <mxPoint x="493" y="225" as="sourcePoint" />
            <mxPoint x="490" y="270" as="targetPoint" />
          </mxGeometry>
        </mxCell>
        <mxCell id="CoT1G1r6cHEaYP_C9Xn3-16" value="" style="endArrow=classic;html=1;rounded=0;exitX=0.944;exitY=0.673;exitDx=0;exitDy=0;exitPerimeter=0;entryX=0;entryY=0.5;entryDx=0;entryDy=0;" edge="1" parent="1" source="CoT1G1r6cHEaYP_C9Xn3-4" target="CoT1G1r6cHEaYP_C9Xn3-10">
          <mxGeometry width="50" height="50" relative="1" as="geometry">
            <mxPoint x="370" y="280" as="sourcePoint" />
            <mxPoint x="420" y="230" as="targetPoint" />
          </mxGeometry>
        </mxCell>
        <mxCell id="CoT1G1r6cHEaYP_C9Xn3-17" value="" style="endArrow=classic;html=1;rounded=0;entryX=0.5;entryY=0;entryDx=0;entryDy=0;exitX=0.5;exitY=1;exitDx=0;exitDy=0;" edge="1" parent="1" source="CoT1G1r6cHEaYP_C9Xn3-10" target="CoT1G1r6cHEaYP_C9Xn3-11">
          <mxGeometry width="50" height="50" relative="1" as="geometry">
            <mxPoint x="370" y="280" as="sourcePoint" />
            <mxPoint x="420" y="230" as="targetPoint" />
          </mxGeometry>
        </mxCell>
      </root>
    </mxGraphModel>
  </diagram>
</mxfile>
